<?xml version="1.0" encoding="UTF-8"?>
<svg version="1.1" xmlns="http://www.w3.org/2000/svg" width="512" height="512">
<path d="M0 0 C1.50393716 -0.00679667 1.50393716 -0.00679667 3.03825688 -0.01373065 C6.39593319 -0.02638492 9.75344751 -0.02475359 13.11114502 -0.02310181 C15.51942147 -0.02908644 17.92769601 -0.03589183 20.33596802 -0.04345703 C26.19796273 -0.05929579 32.0599195 -0.06556576 37.92193124 -0.06668179 C42.68906155 -0.06763323 47.45617863 -0.07174832 52.22330475 -0.07808304 C65.75023793 -0.09569119 79.27713942 -0.10492269 92.80408415 -0.10342209 C93.89725604 -0.10330222 93.89725604 -0.10330222 95.01251221 -0.10317993 C96.10702489 -0.10305729 96.10702489 -0.10305729 97.22364894 -0.10293217 C109.04384352 -0.10211961 120.86391058 -0.1212508 132.68406829 -0.14945666 C144.83194892 -0.17821489 156.97976741 -0.19199531 169.12768292 -0.19026911 C175.94335902 -0.18960618 182.75890145 -0.1950559 189.57454681 -0.21662521 C195.98662232 -0.23678784 202.39848877 -0.23613326 208.81058121 -0.22159195 C211.16072375 -0.21950244 213.51088393 -0.22421315 215.86099625 -0.23631287 C219.07611771 -0.25179072 222.29026991 -0.24243954 225.50537109 -0.22705078 C226.42932324 -0.23733791 227.35327539 -0.24762503 228.30522609 -0.25822389 C238.22253631 -0.15375396 246.74444354 3.52170958 254.00665283 10.26742554 C264.04285947 20.83796725 264.59542026 33.24443095 264.52423096 47.04867554 C264.52966018 48.82553682 264.5367873 50.60239359 264.54547119 52.37924194 C264.56361242 57.17681039 264.55667524 61.97403242 264.54395485 66.77160645 C264.53377928 71.80863328 264.54323313 76.84563182 264.54949951 81.88265991 C264.55676269 90.3390939 264.54722317 98.79538784 264.52813721 107.25180054 C264.50637106 117.00796483 264.51342337 126.76379467 264.53544283 136.51995087 C264.55363477 144.91860554 264.55613663 153.31715992 264.54568815 161.71582794 C264.53947405 166.72225928 264.53855997 171.72853377 264.55183411 176.73495483 C264.56344736 181.44326315 264.5552675 186.15114314 264.53225708 190.85940552 C264.5269991 192.5802235 264.52843346 194.30107797 264.53730774 196.0218811 C264.59586681 208.53746012 263.44916316 219.22540241 255.12774658 229.19320679 C246.55759595 237.57396183 237.42377777 240.59484871 225.7666626 240.49447632 C224.41913658 240.4949144 224.41913658 240.4949144 223.04438782 240.49536133 C220.09551094 240.4939757 217.14689145 240.47845071 214.19805908 240.46273804 C212.1454024 240.45900518 210.09274394 240.4561595 208.04008484 240.4541626 C202.65277131 240.44654762 197.26556661 240.42691749 191.8782959 240.40475464 C186.37487256 240.38425016 180.87143153 240.37515105 175.36798096 240.36508179 C164.58082392 240.34366957 153.79374745 240.30955945 143.00665283 240.26742554 C143.0905492 256.87028371 143.18568122 273.47303359 143.29417992 290.07574749 C143.34429623 297.78472091 143.39073925 305.49368375 143.42852783 313.20272827 C143.46147466 319.92213154 143.50132075 326.64145245 143.54944289 333.3607648 C143.57468117 336.91840525 143.59647029 340.47599127 143.6099968 344.03369713 C143.62522826 348.00583007 143.65586315 351.97776313 143.68780518 355.94979858 C143.68996536 357.12871674 143.69212555 358.30763489 143.6943512 359.52227783 C143.70551468 360.60616287 143.71667816 361.69004791 143.72817993 362.80677795 C143.73371069 363.746085 143.73924145 364.68539206 143.7449398 365.65316296 C144.03440838 368.54467688 144.6959089 370.67750757 146.00665283 373.26742554 C151.33015694 376.1304264 157.45958553 375.52404871 163.34527588 375.47518921 C164.47940414 375.47399078 165.61353241 375.47279236 166.7820282 375.47155762 C169.2406719 375.46841158 171.69931301 375.46110841 174.15793419 375.45012474 C178.05551632 375.43525255 181.95275597 375.43687673 185.85035706 375.44377136 C196.93079591 375.46290351 208.01099569 375.46975878 219.09136963 375.42196655 C225.87421945 375.39289747 232.65631015 375.40075177 239.43915749 375.42897987 C242.01741405 375.43322942 244.595725 375.42481456 247.17389488 375.40324974 C250.79045236 375.37424967 254.40451504 375.38875643 258.02105713 375.41268921 C259.60267639 375.38425179 259.60267639 375.38425179 261.21624756 375.35523987 C269.4714071 375.48036153 274.47028636 378.41086009 281.00665283 383.26742554 C282.25790631 384.11573632 283.51215711 384.95968712 284.77227783 385.79476929 C285.93521615 386.59601086 287.0966398 387.39945464 288.25665283 388.20492554 C288.90867676 388.65529175 289.56070068 389.10565796 290.23248291 389.56967163 C292.49262422 391.13260447 294.74996457 392.69951107 297.00665283 394.26742554 C297.91656982 394.89954956 298.82648682 395.53167358 299.76397705 396.18295288 C304.60066367 399.54434113 309.43535958 402.90856903 314.26837158 406.27523804 C320.5058282 410.61845381 326.75567161 414.94371061 333.00665283 419.26742554 C333.02123535 418.23335571 333.03581787 417.19928589 333.05084229 416.13388062 C333.10896166 412.28506472 333.18619306 408.43682554 333.269104 404.58847046 C333.30228938 402.92515446 333.33034118 401.26172758 333.35308838 399.59823608 C333.38675282 397.20233054 333.43907223 394.80743519 333.49493408 392.41195679 C333.50132401 391.67218094 333.50771393 390.93240509 333.51429749 390.17021179 C333.6403536 385.71014684 334.1591823 382.75131139 337.00665283 379.26742554 C341.45168454 375.4524845 346.12327077 375.84240296 351.69024658 375.86117554 C352.62337173 375.85033936 353.55649689 375.83950317 354.51789856 375.82833862 C357.49338746 375.79413599 360.46849338 375.77849731 363.44415283 375.76742554 C367.35988423 375.75282999 371.27476476 375.71909861 375.19024658 375.67367554 C376.08416611 375.67669678 376.97808563 375.67971802 377.89909363 375.68283081 C382.99695231 375.62178043 386.62429517 375.16769685 391.00665283 372.26742554 C394.21856554 367.44955648 394.13252898 363.06806104 394.1403656 357.37329102 C394.14263116 356.69200461 394.14489671 356.0107182 394.14723092 355.30878675 C394.1535458 353.03277526 394.15274318 350.75682371 394.1519165 348.48080444 C394.15490955 346.8461245 394.15831242 345.21144527 394.16209412 343.57676697 C394.17092323 339.14078032 394.17327177 334.70481296 394.1739099 330.26881838 C394.17462099 327.49628149 394.17675643 324.7237495 394.17940712 321.95121384 C394.18865675 312.27569009 394.19274246 302.60018012 394.19195557 292.9246521 C394.19135479 283.91047923 394.20190766 274.8963662 394.21769923 265.88220847 C394.23078092 258.13853506 394.2361392 250.39488121 394.23550016 242.65119684 C394.23524537 238.02825273 394.2380862 233.40536182 394.24867821 228.78242874 C394.25836981 224.4338369 394.25843107 220.085349 394.25116158 215.73675346 C394.25011708 214.14325623 394.25247063 212.54975249 394.25852203 210.9562664 C394.26626411 208.77589857 394.26158276 206.59588774 394.25389099 204.41552734 C394.25443576 203.19695856 394.25498053 201.97838978 394.2555418 200.72289467 C393.92311057 196.10756017 393.49022246 191.70313808 390.06915283 188.39242554 C385.60678277 185.95840551 381.44047062 186.12881775 376.49957275 186.14144897 C375.63095108 186.13958084 374.76232941 186.13771271 373.86738586 186.13578796 C371.98000065 186.13178323 370.0926106 186.12970906 368.20522118 186.12932587 C364.19206861 186.12591138 360.17907821 186.10455045 356.16598225 186.084095 C348.69284753 186.04606605 341.21988557 186.01481091 333.74664307 186.01693726 C328.5493399 186.01772435 323.35262969 185.99436137 318.15548134 185.95505524 C316.17600482 185.94459314 314.19645989 185.94307274 312.21697044 185.95070648 C309.44463355 185.9603308 306.67409139 185.93914173 303.9019165 185.91098022 C303.08663483 185.92117691 302.27135315 185.9313736 301.43136597 185.94187927 C295.6143426 185.83609562 293.07264795 184.44641869 289.00665283 180.26742554 C286.70412773 176.56336342 286.78863105 173.38139696 287.46759033 169.19711304 C288.31595165 166.1602254 289.73517368 164.4127114 292.00665283 162.26742554 C296.45473083 159.89640361 300.8497712 159.97785448 305.769104 159.99276733 C306.64134613 159.9876564 307.51358826 159.98254547 308.41226196 159.97727966 C311.29145199 159.96339826 314.17040209 159.96434 317.04962158 159.96664429 C319.0587625 159.96275525 321.06790259 159.95842016 323.07704163 159.95365906 C327.28936425 159.94619899 331.50160306 159.94648564 335.71392822 159.95175171 C341.09262647 159.95753198 346.47097875 159.94064914 351.84961987 159.91740704 C356.00110354 159.90261728 360.15250504 159.90180536 364.30401039 159.90491676 C366.28579707 159.90440572 368.26758861 159.89920902 370.24934959 159.88910484 C385.0792022 159.82279823 397.27463207 160.32922485 408.75665283 170.76742554 C409.49915283 171.59242554 410.24165283 172.41742554 411.00665283 173.26742554 C411.68727783 173.98930054 412.36790283 174.71117554 413.06915283 175.45492554 C419.71278531 185.09890817 419.58665366 194.92394014 419.5401001 206.19467163 C419.54716725 207.9993205 419.5559156 209.80396344 419.56620789 211.6085968 C419.58862379 216.48685191 419.58578021 221.36478136 419.57688642 226.24306822 C419.57175937 230.32585536 419.57908309 234.40858224 419.58635849 238.49136317 C419.60333317 248.12868543 419.59981666 257.76584926 419.58306885 267.40316772 C419.56615328 277.32236654 419.58197991 287.24112508 419.61429173 297.16027582 C419.64104336 305.69820693 419.64824849 314.23600146 419.63977665 322.77397025 C419.63486328 327.86377017 419.63697653 332.95330538 419.65756416 338.04307175 C419.67600876 342.83186888 419.66985594 347.6200362 419.64536476 352.40880013 C419.64038444 354.15822732 419.64377375 355.90770324 419.65651321 357.65709114 C419.73837684 369.87246065 418.70695221 381.39562823 409.79180908 390.74398804 C398.63992881 400.26090993 387.11376979 401.73024923 372.88165283 401.45492554 C371.53010537 401.43983985 370.17854148 401.42615837 368.82696533 401.41390991 C365.55309912 401.37883277 362.28009604 401.32967651 359.00665283 401.26742554 C359.01553528 401.84292145 359.02441772 402.41841736 359.03356934 403.01135254 C359.12222185 409.01360112 359.1824612 415.01566302 359.22637939 421.0184021 C359.24646599 423.25708575 359.27374063 425.49571712 359.30841064 427.73422241 C359.35705747 430.95635903 359.37965157 434.17780055 359.39727783 437.40023804 C359.41792297 438.39733795 359.43856812 439.39443787 359.45983887 440.42175293 C359.46174901 446.36807762 358.99615333 449.75649822 355.00665283 454.26742554 C350.47112129 457.29111323 346.31592531 457.10298317 341.00665283 456.26742554 C337.21957029 454.57538564 334.06152227 452.25535751 330.75665283 449.76742554 C329.81845703 449.09469604 328.88026123 448.42196655 327.91363525 447.72885132 C325.93363257 446.30895395 323.96065307 444.87921704 321.9944458 443.4402771 C317.16030851 439.92468453 312.23520991 436.54196753 307.31915283 433.14242554 C305.39817056 431.80447142 303.47759289 430.46593618 301.55743408 429.12680054 C296.38794154 425.52797977 291.20365136 421.951397 286.00665283 418.39242554 C285.3148291 417.9178894 284.62300537 417.44335327 283.91021729 416.95443726 C282.50772234 415.99586103 281.09385192 415.05373452 279.66957092 414.12783813 C277.00665283 412.26742554 277.00665283 412.26742554 274.15713501 409.80133057 C262.56955526 400.23478969 250.80453719 400.91596154 236.35821533 401.14242554 C233.89014497 401.14371896 231.42206811 401.14029944 228.95401001 401.13241577 C222.49607849 401.12298971 216.03992198 401.17120225 209.58233643 401.23379517 C200.47012265 401.31136329 191.3575142 401.30925438 182.24502563 401.31674194 C177.4022408 401.32094845 172.56032809 401.34662119 167.71774292 401.38998413 C165.5023604 401.40258293 163.28697752 401.41511882 161.07159424 401.42758179 C160.08023468 401.44113205 159.08887512 401.45468231 158.06747437 401.46864319 C145.77606542 401.51195736 136.37793809 398.44419596 127.19415283 390.01742554 C121.13915168 383.59024937 117.90804101 375.64271863 117.84843445 366.8890686 C117.83375122 365.25268181 117.83375122 365.25268181 117.81877136 363.58323669 C117.8130159 362.39137253 117.80726044 361.19950836 117.80133057 359.9715271 C117.79143097 358.71273239 117.78153137 357.45393768 117.77133179 356.15699768 C117.74432532 352.70901762 117.72329276 349.26102393 117.7033298 345.81299686 C117.68144394 342.20816128 117.65406798 338.60336751 117.62727356 334.99856567 C117.57738181 328.17406487 117.53242995 321.34954083 117.4892512 314.52499461 C117.43984874 306.7547682 117.38494177 298.98458373 117.3295716 291.21439791 C117.21580557 275.23211256 117.10895484 259.24978862 117.00665283 243.26742554 C116.17445221 243.85104607 116.17445221 243.85104607 115.32543945 244.44645691 C112.75599326 246.24796762 110.18601298 248.04871502 107.61602783 249.84945679 C106.74381592 250.46115723 105.871604 251.07285767 104.97296143 251.70309448 C96.76712921 257.45135207 88.50039096 263.10813829 80.22344971 268.75326538 C76.81227896 271.08323024 73.40943712 273.42523826 70.00665283 275.76742554 C68.72023167 276.65159421 67.43377282 277.53570804 66.14727783 278.41976929 C63.94088016 279.93626249 61.7356613 281.45441397 59.53204346 282.97494507 C56.94178587 284.76218394 54.34934294 286.54621788 51.75665283 288.32992554 C50.94583252 288.89066772 50.13501221 289.45140991 49.29962158 290.02914429 C48.53778564 290.55250366 47.77594971 291.07586304 46.99102783 291.61508179 C46.31781494 292.07922485 45.64460205 292.54336792 44.95098877 293.02157593 C40.4514942 295.90466492 37.46378152 296.83195609 32.00665283 296.26742554 C27.56564002 293.96151504 25.03520297 291.83028401 23.00665283 287.26742554 C22.59781542 283.67426086 22.65787959 280.11008747 22.71368408 276.49789429 C22.71792892 275.46175491 22.72217377 274.42561554 22.72654724 273.358078 C22.74330678 270.05676011 22.78095473 266.75605816 22.81915283 263.45492554 C22.83420316 261.21339791 22.84789095 258.97186069 22.86016846 256.73031616 C22.89320135 251.24247668 22.94337391 245.75499512 23.00665283 240.26742554 C22.12517578 240.2883728 21.24369873 240.30932007 20.33551025 240.3309021 C17.01232093 240.39975843 13.68990767 240.44955016 10.36627197 240.4871521 C8.93776359 240.50706162 7.50933445 240.53419983 6.08111572 240.56918335 C-6.51265917 240.869561 -17.49501287 239.28562425 -26.99334717 230.26742554 C-36.89231831 219.61052853 -37.58097406 208.1666228 -37.51092529 194.30844116 C-37.51635292 192.50054869 -37.52347917 190.69266064 -37.53216553 188.88478088 C-37.55032558 183.99838247 -37.54336169 179.11232371 -37.53064919 174.22591972 C-37.52048348 169.09899899 -37.52992475 163.97210627 -37.53619385 158.84518433 C-37.54345987 150.23734343 -37.53390999 141.62964006 -37.51483154 133.02182007 C-37.49306485 123.08672708 -37.50011696 113.1519625 -37.52213717 103.21687746 C-37.54032095 94.6687911 -37.54283493 86.1208033 -37.53238249 77.57270384 C-37.52616393 72.47518758 -37.52526674 67.37782542 -37.53852844 62.28031921 C-37.55012973 57.4866692 -37.54198335 52.69344036 -37.51895142 47.89983559 C-37.51368712 46.14634715 -37.51513881 44.39282293 -37.52400208 42.63934898 C-37.58637586 29.04008817 -36.05618341 19.60398414 -26.36444092 9.46664429 C-18.41971496 2.09781279 -10.65375242 -0.03537113 0 0 Z M64.86993408 83.74398804 C55.82404125 95.79209693 51.62176231 111.31411399 53.00665283 126.26742554 C55.9362089 143.61671265 63.45113476 158.44570858 77.88165283 169.07992554 C91.97314023 178.32202761 108.18526567 182.93184896 124.97930908 179.54086304 C131.58716825 178.00170935 137.52015671 175.9259959 143.17462158 172.12289429 C145.60196365 170.98944458 146.51101045 171.36587653 149.00665283 172.26742554 C150.80596924 173.74203491 150.80596924 173.74203491 152.60821533 175.61117554 C153.59048096 176.61471069 153.59048096 176.61471069 154.59259033 177.63851929 C155.60192627 178.69232788 155.60192627 178.69232788 156.63165283 179.76742554 C157.97586666 181.15491898 159.32212394 182.54043654 160.67071533 183.92367554 C161.26320068 184.54049194 161.85568604 185.15730835 162.46612549 185.79281616 C165.59956384 188.79217712 168.59910481 188.59928299 172.74884033 188.55258179 C176.12042139 188.12675927 177.74686026 186.7326538 180.00665283 184.26742554 C182.29519277 180.99808276 182.47827501 178.19761034 182.00665283 174.26742554 C179.00417036 169.03922222 175.05604557 165.07821644 170.75665283 160.89242554 C170.10696533 160.25176147 169.45727783 159.61109741 168.78790283 158.95101929 C167.19864399 157.3851319 165.60488866 155.82414045 164.00665283 154.26742554 C164.48876221 153.20523804 164.97087158 152.14305054 165.46759033 151.04867554 C166.1059538 149.62174544 166.74395529 148.19465336 167.38165283 146.76742554 C167.69876221 146.07133179 168.01587158 145.37523804 168.34259033 144.65805054 C175.08093274 129.49678011 175.38562912 114.11513726 169.75665283 98.51742554 C167.44317213 92.90571725 164.72356369 88.05771637 161.00665283 83.26742554 C160.45622314 82.53008179 159.90579346 81.79273804 159.33868408 81.03305054 C150.50542587 70.10919176 136.8839059 62.41603432 123.00665283 60.26742554 C99.34304907 58.55408933 80.53723419 65.58481388 64.86993408 83.74398804 Z " fill="#9D4ABB" transform="translate(64.99334716796875,27.732574462890625)"/>
<path d="M0 0 C1.30836319 -0.0076664 1.30836319 -0.0076664 2.64315796 -0.01548767 C5.52234798 -0.02936908 8.40129809 -0.02842733 11.28051758 -0.02612305 C13.28965849 -0.03001208 15.29879859 -0.03434718 17.30793762 -0.03910828 C21.52026024 -0.04656834 25.73249906 -0.0462817 29.94482422 -0.04101562 C35.32352246 -0.03523535 40.70187475 -0.05211819 46.08051586 -0.0753603 C50.23199953 -0.09015005 54.38340103 -0.09096198 58.53490639 -0.08785057 C60.51669306 -0.08836161 62.49848461 -0.09355831 64.48024559 -0.10366249 C79.31009819 -0.16996911 91.50552807 0.33645751 102.98754883 10.7746582 C103.73004883 11.5996582 104.47254883 12.4246582 105.23754883 13.2746582 C105.91817383 13.9965332 106.59879883 14.7184082 107.30004883 15.4621582 C113.94368131 25.10614084 113.81754965 34.93117281 113.77099609 46.2019043 C113.77806324 48.00655317 113.78681159 49.81119611 113.79710388 51.61582947 C113.81951978 56.49408457 113.81667621 61.37201403 113.80778241 66.25030088 C113.80265536 70.33308803 113.80997909 74.4158149 113.81725448 78.49859583 C113.83422916 88.1359181 113.83071266 97.77308193 113.81396484 107.41040039 C113.79704928 117.32959921 113.81287591 127.24835775 113.84518772 137.16750848 C113.87193936 145.70543959 113.87914449 154.24323412 113.87067264 162.78120291 C113.86575927 167.87100283 113.86787253 172.96053805 113.88846016 178.05030441 C113.90690476 182.83910155 113.90075194 187.62726887 113.87626076 192.41603279 C113.87128043 194.16545999 113.87466975 195.91493591 113.88740921 197.66432381 C113.96927284 209.87969332 112.93784821 221.4028609 104.02270508 230.7512207 C92.8708248 240.2681426 81.34466579 241.73748189 67.11254883 241.4621582 C65.76100137 241.44707252 64.40943748 241.43339103 63.05786133 241.42114258 C59.78399512 241.38606544 56.51099203 241.33690917 53.23754883 241.2746582 C53.24643127 241.85015411 53.25531372 242.42565002 53.26446533 243.01858521 C53.35311784 249.02083379 53.41335719 255.02289568 53.45727539 261.02563477 C53.47736199 263.26431842 53.50463663 265.50294979 53.53930664 267.74145508 C53.58795346 270.96359169 53.61054757 274.18503322 53.62817383 277.4074707 C53.64881897 278.40457062 53.66946411 279.40167053 53.69073486 280.4289856 C53.692645 286.37531029 53.22704933 289.76373089 49.23754883 294.2746582 C44.70201728 297.2983459 40.5468213 297.11021584 35.23754883 296.2746582 C31.45046628 294.5826183 28.29241826 292.26259017 24.98754883 289.7746582 C23.58025513 288.76556396 23.58025513 288.76556396 22.14453125 287.73608398 C20.16452856 286.31618661 18.19154906 284.88644971 16.2253418 283.44750977 C11.39120451 279.9319172 6.46610591 276.5492002 1.55004883 273.1496582 C-0.37093345 271.81170408 -2.29151111 270.47316885 -4.21166992 269.1340332 C-9.38116247 265.53521243 -14.56545264 261.95862967 -19.76245117 258.3996582 C-20.80018677 257.687854 -20.80018677 257.687854 -21.85888672 256.96166992 C-23.26138166 256.00309369 -24.67525209 255.06096719 -26.09953308 254.1350708 C-28.76245117 252.2746582 -28.76245117 252.2746582 -31.61196899 249.80856323 C-43.19954874 240.24202236 -54.96456681 240.9231942 -69.41088867 241.1496582 C-71.87895903 241.15095163 -74.34703589 241.1475321 -76.81509399 241.13964844 C-83.27302552 241.13022238 -89.72918202 241.17843492 -96.18676758 241.24102783 C-105.29898135 241.31859596 -114.4115898 241.31648705 -123.52407837 241.32397461 C-128.36686321 241.32818112 -133.20877591 241.35385385 -138.05136108 241.3972168 C-140.2667436 241.40981559 -142.48212648 241.42235149 -144.69750977 241.43481445 C-145.68886932 241.44836472 -146.68022888 241.46191498 -147.70162964 241.47587585 C-159.99303859 241.51919003 -169.39116591 238.45142863 -178.57495117 230.0246582 C-184.65253706 223.57350911 -187.88598781 215.61366331 -187.88943481 206.82710266 C-187.89225464 205.72079498 -187.89507446 204.6144873 -187.89797974 203.47465515 C-187.89595551 202.26566055 -187.89393127 201.05666595 -187.8918457 199.81103516 C-187.89359802 198.5343396 -187.89535034 197.25764404 -187.89715576 195.94226074 C-187.90171216 192.44459846 -187.89994826 188.9469657 -187.89677668 185.44930291 C-187.89424546 181.79157446 -187.89659259 178.13384854 -187.89816284 174.47612 C-187.89998161 168.33693996 -187.89758516 162.19777196 -187.89282227 156.05859375 C-187.88737294 148.95237463 -187.88914833 141.84618417 -187.89464867 134.73996574 C-187.89917946 128.64310215 -187.89983074 122.54624721 -187.89721 116.44938248 C-187.89564797 112.80584791 -187.8954516 109.16232683 -187.89874649 105.51879311 C-187.90215857 101.46254386 -187.89743609 97.40634447 -187.8918457 93.35009766 C-187.89386993 92.13503036 -187.89589417 90.91996307 -187.89797974 89.66807556 C-187.89515991 88.57022736 -187.89234009 87.47237915 -187.88943481 86.34126282 C-187.88905779 85.38134084 -187.88868076 84.42141886 -187.88829231 83.43240833 C-187.76245117 81.2746582 -187.76245117 81.2746582 -186.76245117 80.2746582 C-184.98173871 80.18739597 -183.19761977 80.16766779 -181.41479492 80.17700195 C-180.33520508 80.18022461 -179.25561523 80.18344727 -178.14331055 80.18676758 C-176.43884766 80.19933594 -176.43884766 80.19933594 -174.69995117 80.2121582 C-172.9896875 80.21892578 -172.9896875 80.21892578 -171.24487305 80.22583008 C-168.41734766 80.23766073 -165.58992477 80.25414411 -162.76245117 80.2746582 C-162.75914103 80.92972697 -162.75583088 81.58479574 -162.75242043 82.25971508 C-162.67119096 98.20088356 -162.5790987 114.14194669 -162.47492409 130.08298016 C-162.42480778 137.79195358 -162.37836475 145.50091642 -162.34057617 153.20996094 C-162.30762934 159.9293642 -162.26778326 166.64868512 -162.21966112 173.36799747 C-162.19442284 176.92563792 -162.17263371 180.48322393 -162.15910721 184.04092979 C-162.14387575 188.01306273 -162.11324086 191.98499579 -162.08129883 195.95703125 C-162.07913864 197.1359494 -162.07697845 198.31486755 -162.07475281 199.5295105 C-162.06358932 200.61339554 -162.05242584 201.69728058 -162.04092407 202.81401062 C-162.03539331 203.75331767 -162.02986256 204.69262472 -162.0241642 205.66039562 C-161.73469562 208.55190955 -161.0731951 210.68474023 -159.76245117 213.2746582 C-154.43894707 216.13765906 -148.30951847 215.53128137 -142.42382812 215.48242188 C-141.28969986 215.48122345 -140.15557159 215.48002502 -138.98707581 215.47879028 C-136.52843211 215.47564425 -134.06979099 215.46834108 -131.61116982 215.45735741 C-127.71358768 215.44248522 -123.81634804 215.44410939 -119.91874695 215.45100403 C-108.83830809 215.47013618 -97.75810831 215.47699145 -86.67773438 215.42919922 C-79.89488456 215.40013014 -73.11279386 215.40798444 -66.32994652 215.43621254 C-63.75168996 215.44046208 -61.173379 215.43204723 -58.59520912 215.41048241 C-54.97865164 215.38148233 -51.36458896 215.3959891 -47.74804688 215.41992188 C-46.69363403 215.40096359 -45.63922119 215.38200531 -44.55285645 215.36247253 C-36.29769691 215.4875942 -31.29881764 218.41809276 -24.76245117 223.2746582 C-23.51119769 224.12296899 -22.25694689 224.96691979 -20.99682617 225.80200195 C-19.83388786 226.60324353 -18.6724642 227.40668731 -17.51245117 228.2121582 C-16.86042725 228.66252441 -16.20840332 229.11289062 -15.53662109 229.5769043 C-13.27647979 231.13983713 -11.01913943 232.70674373 -8.76245117 234.2746582 C-7.85253418 234.90678223 -6.94261719 235.53890625 -6.00512695 236.19018555 C-1.16844033 239.5515738 3.66625557 242.9158017 8.49926758 246.2824707 C14.73672419 250.62568648 20.9865676 254.95094327 27.23754883 259.2746582 C27.25213135 258.24058838 27.26671387 257.20651855 27.28173828 256.14111328 C27.33985765 252.29229738 27.41708905 248.44405821 27.5 244.59570312 C27.53318538 242.93238712 27.56123717 241.26896024 27.58398438 239.60546875 C27.61764882 237.20956321 27.66996823 234.81466785 27.72583008 232.41918945 C27.73222 231.6794136 27.73860992 230.93963776 27.74519348 230.17744446 C27.8712496 225.7173795 28.3900783 222.75854406 31.23754883 219.2746582 C35.68258053 215.45971717 40.35416677 215.84963563 45.92114258 215.8684082 C46.85426773 215.85757202 47.78739288 215.84673584 48.74879456 215.83557129 C51.72428346 215.80136866 54.69938937 215.78572998 57.67504883 215.7746582 C61.59078023 215.76006266 65.50566076 215.72633128 69.42114258 215.6809082 C70.3150621 215.68392944 71.20898163 215.68695068 72.12998962 215.69006348 C77.22784831 215.6290131 80.85519116 215.17492951 85.23754883 212.2746582 C88.44946153 207.45678915 88.36342498 203.07529371 88.3712616 197.38052368 C88.37352715 196.69923727 88.37579271 196.01795087 88.37812692 195.31601942 C88.3844418 193.04000793 88.38363918 190.76405637 88.3828125 188.48803711 C88.38580555 186.85335717 88.38920842 185.21867794 88.39299011 183.58399963 C88.40181922 179.14801299 88.40416776 174.71204563 88.4048059 170.27605104 C88.40551699 167.50351416 88.40765243 164.73098217 88.41030312 161.9584465 C88.41955274 152.28292276 88.42363846 142.60741279 88.42285156 132.93188477 C88.42225078 123.91771189 88.43280365 114.90359886 88.44859523 105.88944113 C88.46167691 98.14576773 88.4670352 90.40211387 88.46639615 82.6584295 C88.46614136 78.0354854 88.4689822 73.41259449 88.4795742 68.78966141 C88.48926581 64.44106956 88.48932707 60.09258167 88.48205757 55.74398613 C88.48101307 54.1504889 88.48336663 52.55698515 88.48941803 50.96349907 C88.4971601 48.78313123 88.49247876 46.60312041 88.48478699 44.42276001 C88.48533175 43.20419123 88.48587652 41.98562244 88.4864378 40.73012733 C88.15400657 36.11479283 87.72111845 31.71037074 84.30004883 28.3996582 C79.83767877 25.96563817 75.67136662 26.13605042 70.73046875 26.14868164 C69.86184708 26.14681351 68.9932254 26.14494537 68.09828186 26.14302063 C66.21089665 26.13901589 64.32350659 26.13694172 62.43611717 26.13655853 C58.4229646 26.13314405 54.4099742 26.11178311 50.39687824 26.09132767 C42.92374353 26.05329871 35.45078157 26.02204358 27.97753906 26.02416992 C22.7802359 26.02495702 17.58352569 26.00159404 12.38637733 25.9622879 C10.40690082 25.9518258 8.42735588 25.95030541 6.44786644 25.95793915 C3.67552954 25.96756347 0.90498739 25.94637439 -1.8671875 25.91821289 C-2.68246918 25.92840958 -3.49775085 25.93860626 -4.33773804 25.94911194 C-10.15476141 25.84332829 -12.69645605 24.45365136 -16.76245117 20.2746582 C-19.06497627 16.57059609 -18.98047295 13.38862963 -18.30151367 9.2043457 C-17.45315235 6.16745807 -16.03393032 4.41994407 -13.76245117 2.2746582 C-9.31437318 -0.09636372 -4.9193328 -0.01491286 0 0 Z " fill="#FEBA00" transform="translate(370.762451171875,187.725341796875)"/>
<path d="M0 0 C6.04322569 4.73658229 8.36719867 11.05746093 11.2421875 17.953125 C11.70979996 19.05640137 12.17741241 20.15967773 12.65919495 21.29638672 C14.17664996 24.88176597 15.68263603 28.47181973 17.1875 32.0625 C18.22350097 34.52334108 19.2599045 36.98400676 20.29711914 39.44433594 C21.84789388 43.12318177 23.39804835 46.8022807 24.94502258 50.48272705 C27.88688096 57.47281469 30.87839118 64.43721985 33.94140625 71.375 C34.913008 73.59271047 35.88352276 75.81089369 36.8538208 78.0291748 C37.44373998 79.36763205 38.03974308 80.70342699 38.64227295 82.03625488 C44.943009 95.98587055 44.943009 95.98587055 43.3125 103.8125 C41.59027354 106.91840922 39.53907676 109.19921162 36.3125 110.8125 C34.140625 111.0859375 34.140625 111.0859375 31.5625 111.1875 C30.72203125 111.23648438 29.8815625 111.28546875 29.015625 111.3359375 C26.3125 110.8125 26.3125 110.8125 20.3125 105.8125 C18.0025 100.5325 15.6925 95.2525 13.3125 89.8125 C-5.9925 89.3175 -5.9925 89.3175 -25.6875 88.8125 C-26.6775 91.7825 -27.6675 94.7525 -28.6875 97.8125 C-30.54275166 102.34888954 -32.34210162 106.54184597 -35.9375 109.9375 C-41.45325443 111.69251277 -45.93548318 111.70443584 -51.125 109.0625 C-54.83901239 105.80141595 -55.54764232 104.3091796 -56.00805664 99.38208008 C-55.94586085 93.56247146 -53.50474462 88.69211628 -51.18359375 83.44921875 C-50.713237 82.35542908 -50.24288025 81.2616394 -49.75827026 80.13470459 C-48.22752784 76.58370333 -46.67669289 73.04189018 -45.125 69.5 C-44.06861315 67.06249006 -43.01352434 64.62441717 -41.9597168 62.18579102 C-39.85868053 57.32747435 -37.75056729 52.47232051 -35.63769531 47.61914062 C-33.04032999 41.64220962 -30.48771887 35.64768279 -27.9609375 29.640625 C-27.27426808 28.01338631 -26.58750453 26.38618734 -25.90063477 24.7590332 C-24.95965506 22.52936238 -24.02047773 20.29904965 -23.08810425 18.06576538 C-22.24961563 16.06020421 -21.40142712 14.05902224 -20.55078125 12.05859375 C-20.08969971 10.96216553 -19.62861816 9.8657373 -19.15356445 8.73608398 C-17.31164164 5.06297397 -15.22937743 1.92903193 -11.875 -0.5 C-7.66447873 -1.82330668 -4.03934426 -1.78482653 0 0 Z M-6.6875 43.8125 C-9.3275 50.4125 -11.9675 57.0125 -14.6875 63.8125 C-9.0775 63.8125 -3.4675 63.8125 2.3125 63.8125 C0.15086487 56.87251352 -2.5811214 50.38132431 -5.6875 43.8125 C-6.0175 43.8125 -6.3475 43.8125 -6.6875 43.8125 Z " fill="#FFBA00" transform="translate(339.6875,266.1875)"/>
<path d="M0 0 C8.49826891 6.07019208 13.95689469 14.60771789 16.0078125 24.828125 C17.08201201 32.56724418 16.35404027 40.57049787 12.5390625 47.4921875 C9.71688232 46.29818819 7.99340025 45.00583637 5.6640625 42.9296875 C2.31482041 40.31727867 0.74954622 39.4921875 -3.4609375 39.4921875 C-7.02059431 40.74853696 -8.95578046 41.86916048 -11.3359375 44.8046875 C-12.69927261 48.06154359 -12.96140869 49.98888919 -12.4609375 53.4921875 C-10.18613603 57.47309008 -7.37229754 60.9569646 -4.4609375 64.4921875 C-13.7437784 69.45742798 -22.90861317 69.70300819 -33.0234375 66.9921875 C-42.66257281 63.71808691 -49.44381738 58.01753186 -54.27734375 49.0625 C-59.43895192 37.85346311 -59.70839334 28.31025754 -55.78515625 16.609375 C-51.72615513 7.05455821 -44.18496027 0.55151671 -34.9609375 -3.8828125 C-23.43652014 -8.10902411 -10.32378406 -6.32536611 0 0 Z " fill="#9D4BBB" transform="translate(199.4609375,116.5078125)"/>
</svg>
